# xmcd
#
# Track frame offsets: 
#        182
#        14542
#        19782
#        35847
#        55130
#        66600
#        76357
#        86977
#        102375
#        111962
#        122805
#        136852
#        150305
#        162100
#        172800
#        182582
#        189417
#        194587
#        207092
#        221605
#
# Disc length: 3096 seconds
#
# Revision: 3
# Processed by: cddbd v1.5.2PL0 Copyright (c) Steve Scherf et al.
# Submitted via: ExactAudioCopy v0.95b4
#
DISCID=190c1614,260c1614
DTITLE=Various Artist - Müllers Büro
DYEAR=1986
DGENRE=Soundtrack
TTITLE0=Gitti Seuberth and Nikki List - Müller's Büro
TTITLE1=Martin Brem - Guten Tag, Schöne Frau
TTITLE2=Wiener Wunder - Männer - Frauen
TTITLE3=Reinhard Thieser - Joe - noch einen
TTITLE4=??? - Für Margaretha
TTITLE5=Sue Tauber - Männer sind wie Marzipan
TTITLE6=Martin Brem - Bettina
TTITLE7=Martin Brem - Männerfreundschaft
TTITLE8=Reinhard Thieser - Ich steig aus
TTITLE9=Brother and Sister - Männer haben Erfolg
TTITLE10=Andreas Vitasek and Maxi - Ich will mehr
TTITLE11=Wiener Wunder - Blue Box Swing
TTITLE12=Babsi Balou - Mondschein
TTITLE13=Barbara Rudnik - Er war wie Du
TTITLE14=Sue Tauber - Weil ich so sexy bin
TTITLE15=Lothar Scherpe - Big Hot Long Hip Shaker
TTITLE16=Barbara Rudnik - Das Geständnis
TTITLE17=Peter Gruber - Sieh Dich an
TTITLE18=Gitti Seuberth - Ganoventango
TTITLE19=Andreas Vitasek and Maxi - Mein Freund Max
EXTD=
EXTT0=
EXTT1=
EXTT2=
EXTT3=
EXTT4=
EXTT5=
EXTT6=
EXTT7=
EXTT8=
EXTT9=
EXTT10=
EXTT11=
EXTT12=
EXTT13=
EXTT14=
EXTT15=
EXTT16=
EXTT17=
EXTT18=
EXTT19=
PLAYORDER=
